<svg width="42" height="36" viewBox="0 0 42 36" fill="none" xmlns="http://www.w3.org/2000/svg">
<path d="M41.5781 19.0026L26.0156 35.5026C25.7344 35.8776 25.2656 35.9714 24.8906 35.9714C24.5156 35.9714 24.1406 35.8776 23.8594 35.5964C23.2031 35.0339 23.2031 34.0964 23.7656 33.5339L36.8906 19.4714H1.54688C0.703125 19.4714 0.046875 18.8151 0.046875 18.0651C0.046875 17.3151 0.703125 16.4714 1.54688 16.4714H36.8906L23.7656 2.50263C23.2031 1.94013 23.2031 1.00263 23.8594 0.44013C24.5156 -0.12237 25.4531 -0.12237 26.0156 0.53388L41.5781 17.0339C42.1406 17.5964 42.1406 18.4401 41.5781 19.0026Z" fill="#2A2E3B"/>
</svg>
