<svg width="43" height="36" viewBox="0 0 43 36" fill="none" xmlns="http://www.w3.org/2000/svg">
<path d="M42.0469 17.9714C42.0469 18.8151 41.2969 19.4714 40.4531 19.4714H5.10938L18.2344 33.5339C18.7969 34.0964 18.7969 35.0339 18.1406 35.5964C17.8594 35.8776 17.4844 35.9714 17.1094 35.9714C16.6406 35.9714 16.2656 35.8776 15.9844 35.5026L0.421875 19.0026C-0.140625 18.4401 -0.140625 17.5964 0.421875 17.0339L15.9844 0.53388C16.5469 -0.12237 17.4844 -0.12237 18.1406 0.44013C18.7969 1.00263 18.7969 1.94013 18.2344 2.50263L5.10938 16.4714H40.4531C41.2969 16.4714 42.0469 17.2214 42.0469 17.9714Z" fill="#2A2E3B"/>
</svg>
