<?xml version="1.0" encoding="UTF-8"?>
<svg id="Layer_1" xmlns="http://www.w3.org/2000/svg" width="512" height="512" version="1.1" viewBox="0 0 512 512">
  <!-- Generator: Adobe Illustrator 29.7.1, SVG Export Plug-In . SVG Version: 2.1.1 Build 8)  -->
  <defs>
    <style>
      .st0 {
        fill: #03aae7;
      }

      .st1 {
        fill: #f3f6fb;
      }
    </style>
  </defs>
  <g id="Generative_Object">
    <path class="st0" d="M259.8,105.1c1.9.2,4.6.7,6.7,1,1.7.2,4,.7,5.8,1s2.5.7,3.8,1,2.6.7,3.8,1,2.7.6,3.8,1,1.9.7,2.9,1,2,.7,2.9,1,2,.6,2.9,1,.7.5,1.9,1c41.2,17.6,60,40.3,80.8,78.4.2.4-.2,1.1,1,2.9s-.7,2.6,1.4,3.8c2,.9,3.2-.9,3.4-1,2.8.6,5.4-.9,6.7-1,7.1,0,15.2-.5,22.1,0,1.7.2,4,.7,5.8,1s3.3.6,4.8,1,2.7.7,3.8,1,1.9.7,2.9,1,2,.7,2.9,1,3.3,1.3,4.8,1.9c26.5,12,48.1,32.1,60.6,58.3.5,1.3,1.6,3.8,1.9,4.8s.7,2,1,2.9.8,2.3,1,2.9c.3,1.1.7,2.7,1,3.8s.8,2.8,1,3.8.7,3.4,1,4.8c.3,2,.7,4.7,1,6.7.5,7.7.6,19.1,0,26.8-.2,1.7-.7,3.9-1,5.7s-.7,2.5-1,3.8-.7,2.7-1,3.8-.7,1.8-1,2.9-.7,2-1,2.9-.6,2-1,2.9c-10.3,24-29.5,43.9-52.9,55.5-.4.2-1.4.3-2.9,1-1.2.5-1.8.9-1.9,1-.9.3-2,.7-2.9,1s-2.2.8-2.9,1c-1.1.3-2.7.7-3.8,1s-2.8.7-3.8,1-3.4.7-4.8,1-4.1.8-5.8,1c-104.1,7.1-216.2-5.3-321.1,0-.9-1.9-4.1-.7-5.8-1s-2.7-.7-3.8-1-2.7-.6-3.8-1-2-.7-2.9-1-2-.6-2.9-1-2.1-.6-2.9-1c-25.8-10.5-47.3-32.6-57.7-58.3-.3-.8-.6-1.9-1-2.9s-.7-2-1-2.9-.6-2.6-1-3.8c-.3-1.3-.9-2.7-1-2.9-.3-1.5-.7-3.4-1-4.8-.3-2-.8-4.7-1-6.7-.5-7.3-.5-18.5,0-25.8.2-2,.6-4.7,1-6.7s.7-2.6,1-3.8.7-2.7,1-3.8.6-2.7,1-3.8.7-2,1-2.9.6-2,1-2.9c8.9-22.8,30.4-44.1,52.9-53.5,1.1-.4,1.8-.9,1.9-1,.8-.3,2.1-.7,2.9-1s2.6-.6,3.8-1c1-.3,2.6-.9,2.9-1,1.4-.3,3.3-.7,4.8-1s3.9-.6,5.8-1c3.1-.6,6.2-.3,9.6-1,2.6-.4,5.5.2,8.2,0,.9-.4.3-1.8.5-1.9,1.6-1.5.6-1.9,1-2.9s.6-2.1,1-2.9c1.5-3.1,1.9-5.4,2.9-7.6,16.9-34,44-62.3,79.8-76.5.8-.3,1.9-.6,2.9-1s2-.6,2.9-1,2-.7,2.9-1,2.2-.8,2.9-1c1.2-.3,2.7-.7,3.8-1s2.8-.7,3.8-1,3.3-.9,3.8-1c1.5-.2,3.5-.8,4.8-1,2.4-.3,5.4-.8,7.7-1,8.7-.7,23-.7,31.7,0Z"/>
    <g>
      <path class="st1" d="M256.2,157.3c1.9.2,4.5.6,6.4.9s3.2.6,4.6.9,1.7.6,2.7.9c1.1.2,2.6.6,3.7.9s1.9.6,2.7.9,1.9.6,2.7.9.8.5,1.8.9c26.5,11.3,47.6,32.5,59.5,58.6.2.5.4,1.5.9,2.7.5,1.3.9,1.7.9,1.8.3.9.7,1.9.9,2.7s.6,2.5.9,3.7.7,2.6.9,3.7.8,2.9.9,3.7c.3,1.4.7,3.2.9,4.6.3,2.2.7,5.1.9,7.3.3,5.6.3,12.7,0,18.3-.2,2.2-.6,5.1-.9,7.3s-.6,3.2-.9,4.6-.6,2.5-.9,3.7-.6,2.6-.9,3.7-.6,1.8-.9,2.7-.6,1.9-.9,2.7-.5.6-.9,1.8c-11.5,26.6-32.5,49.1-59.5,60.4s-1.6.5-2.7.9-1.8.6-2.7.9-1.9.7-2.7.9-2.1.7-2.7.9c-1.1.3-2.6.7-3.7.9s-3,.8-3.7.9c-1.7.3-3.9.7-5.5.9-3,.3-7.2.8-10.1.9-2.7,0-5.5,0-8.2,0-2.9,0-7-.6-10.1-.9-1.6-.2-3.8-.6-5.5-.9s-3.2-.6-4.6-.9-2.5-.6-3.7-.9-1.8-.6-2.7-.9-1.9-.6-2.7-.9-1.9-.6-2.7-.9c-26.9-11.1-49.7-32.8-61.3-59.5-.4-1-.9-1.7-.9-1.8-.3-.8-.6-1.9-.9-2.7s-.7-2-.9-2.7c-.3-1.1-.6-2.5-.9-3.7-.3-1-.9-2.6-.9-2.7-.3-1.3-.7-3.3-.9-4.6s-.7-3.9-.9-5.5c-.3-2.4-.8-5.9-.9-8.2-.3-4.3-.2-9.4,0-13.7.2-2.4.5-5.8.9-8.2s.6-3.2.9-4.6.6-2.5.9-3.7.6-2.6.9-3.7.6-1.9.9-2.7.6-1.9.9-2.7.6-2,.9-2.7c.4-1.2.7-2.2.9-2.7,10.9-25.5,34.2-47.6,59.5-58.6,1-.4,1.7-.9,1.8-.9.8-.3,1.9-.6,2.7-.9s2-.7,2.7-.9,2.4-.8,2.7-.9c1.4-.3,3.1-.6,4.6-.9,1.3-.2,3.5-.9,3.7-.9,1.7-.2,4-.8,5.5-.9,7.4-.6,19.2-.6,26.5,0Z"/>
      <path class="st0" d="M298.9,203.1v115.7h-36.3l-38.4-58.2v58.2h-36.3v-115.7h36.3l38.4,59.2v-59.2h36.3Z"/>
    </g>
  </g>
</svg>