<?xml version="1.0" encoding="UTF-8"?>
<svg id="Layer_1" xmlns="http://www.w3.org/2000/svg" width="512" height="512" version="1.1" viewBox="0 0 512 512">
  <!-- Generator: Adobe Illustrator 29.7.1, SVG Export Plug-In . SVG Version: 2.1.1 Build 8)  -->
  <defs>
    <style>
      .st0 {
        fill: #21346a;
      }

      .st1 {
        fill: #fff;
      }
    </style>
  </defs>
  <rect class="st0" x="-30.2" y="-28.7" width="583.6" height="565.4"/>
  <path class="st1" d="M367.1,252.6v-31.6l-.4-50.2-.2-22.9-.2-14.4c0-6.8,2.3-10.2,7-10.2s4.7.8,5.8,2.4c1.1,1.6,1.6,4.6,1.6,9v2.6c-.1,2.6-.2,7-.2,13.1l-.8,63.8-.6,58.5.5,61.5.6,61.7c-26-16.3-64-38.8-114.1-67.5-50.1-28.7-90.6-51.3-121.6-67.7l.2,9.3,1.9,97.7.2,13.1c0,5.4-2.5,8.1-7.6,8.1s-7.8-3.3-7.8-10l.2-13.2.2-21.4.8-97-1.5-130.7c51.1,31.7,129.8,77.1,235.9,136.3Z"/>
</svg>
