<svg width="203" height="71" viewBox="0 0 203 71" fill="none" xmlns="http://www.w3.org/2000/svg">
<g clip-path="url(#clip0_2139_113)">
<mask id="mask0_2139_113" style="mask-type:luminance" maskUnits="userSpaceOnUse" x="-13" y="-14" width="233" height="99">
<path d="M-12.7456 -13.9734H219.96V84.6221H-12.7456V-13.9734Z" fill="white"/>
</mask>
<g mask="url(#mask0_2139_113)">
<path d="M84.996 39.7428V39.8299C84.996 43.8894 82.3791 46.8359 78.7736 46.8359C75.1512 46.8359 72.4194 43.8237 72.4194 39.8299V39.7428C72.4194 35.749 75.1512 32.7369 78.7736 32.7369C82.3209 32.7369 84.996 35.749 84.996 39.7428ZM80.0352 27.4702C77.0181 27.4702 74.5644 28.6577 72.5505 31.097V21.9004C72.5505 20.2406 71.2309 18.9405 69.5465 18.9405C67.859 18.9405 66.5865 20.2128 66.5865 21.9004V48.8821C66.5865 50.5143 67.9142 51.8417 69.5465 51.8417C71.2031 51.8417 72.5505 50.5143 72.5505 48.8821V48.6885C74.5663 50.9847 77.0198 52.1025 80.0352 52.1025C85.5074 52.1025 91.0471 47.8872 91.0471 39.8299V39.7428C91.0471 31.6856 85.5074 27.4702 80.0352 27.4702Z" fill="#00307C"/>
<path d="M95.1887 18.9406C93.529 18.9406 92.2285 20.2407 92.2285 21.9005V48.8822C92.2285 50.542 93.529 51.8418 95.1887 51.8418C96.8732 51.8418 98.1925 50.542 98.1925 48.8822V21.9005C98.1925 20.2683 96.8451 18.9406 95.1887 18.9406Z" fill="#00307C"/>
<path d="M118.974 27.6882C117.29 27.6882 115.971 29.0073 115.971 30.6915V41.2659C115.971 44.491 114.075 46.5748 111.141 46.5748C108.194 46.5748 106.571 44.7203 106.571 41.3532V30.6915C106.571 29.0073 105.252 27.6882 103.568 27.6882C101.935 27.6882 100.608 29.0353 100.608 30.6915V42.9196C100.608 48.5839 103.876 52.1025 109.139 52.1025C111.913 52.1025 114.153 51.009 115.971 48.7633V48.8821C115.971 50.5143 117.318 51.8417 118.974 51.8417C120.631 51.8417 121.978 50.5143 121.978 48.8821V30.6915C121.978 29.0353 120.631 27.6882 118.974 27.6882Z" fill="#00307C"/>
<path d="M135.796 27.6444C133.838 27.6444 131.76 29.1609 130.357 31.5653V30.6915C130.357 29.0075 129.038 27.6882 127.353 27.6882C125.693 27.6882 124.393 29.0075 124.393 30.6915V48.8821C124.393 50.5418 125.693 51.8418 127.353 51.8418C129.009 51.8418 130.357 50.5142 130.357 48.8821V42.0929C130.357 37.2108 132.496 34.1491 136.382 33.4711C137.824 33.2041 138.756 32.0786 138.756 30.6043C138.756 28.8061 137.594 27.6444 135.796 27.6444Z" fill="#00307C"/>
<path d="M155.665 24.0771C156.081 24.0771 156.578 24.1427 156.742 24.1643C157.419 24.1836 158.06 23.9363 158.545 23.4681C159.038 22.9922 159.322 22.3259 159.322 21.6397C159.322 20.3673 158.409 19.2835 157.205 19.1199C156.355 18.9703 155.467 18.8974 154.49 18.8974C152.138 18.8974 150.363 19.5284 149.064 20.827C147.755 22.1366 147.091 24.123 147.091 26.7311V28.0794H146.526C145.109 28.0794 143.958 29.2313 143.958 30.6475C143.958 32.0399 145.109 33.1727 146.526 33.1727H147.091V48.8822C147.091 50.5142 148.419 51.8418 150.051 51.8418C151.708 51.8418 153.055 50.5142 153.055 48.8822V33.1727H156.71C158.126 33.1727 159.278 32.0399 159.278 30.6475C159.278 29.2319 158.15 28.1227 156.71 28.1227H152.968V27.2098C152.968 25.0436 153.799 24.0771 155.665 24.0771Z" fill="#00307C"/>
<path d="M187.711 27.4693C184.591 27.4693 182.072 28.7 180.017 31.2299C178.6 28.8018 176.15 27.4693 173.087 27.4693C169.688 27.4693 167.681 29.2317 166.429 30.7523V30.6903C166.429 29.0063 165.11 27.687 163.425 27.687C161.766 27.687 160.465 29.0063 160.465 30.6903V48.8809C160.465 50.5407 161.766 51.8408 163.425 51.8408C165.11 51.8408 166.429 50.5407 166.429 48.8809V38.3056C166.429 35.0546 168.223 32.9537 170.999 32.9537C173.736 32.9537 175.306 34.857 175.306 38.1755V48.8809C175.306 50.5407 176.626 51.8408 178.31 51.8408C179.97 51.8408 181.27 50.5407 181.27 48.8809V38.3056C181.27 35.0045 183.021 32.9537 185.839 32.9537C188.618 32.9537 190.148 34.8236 190.148 38.2191V48.8809C190.148 50.5407 191.467 51.8408 193.151 51.8408C194.839 51.8408 196.111 50.5687 196.111 48.8809V36.609C196.111 30.8858 192.971 27.4693 187.711 27.4693Z" fill="#00307C"/>
</g>
<path d="M32.244 10.1463C28.6711 10.1623 25.1419 10.9332 21.8878 12.4084C18.6338 13.8836 15.7282 16.0298 13.3617 18.7063H36.7485C38.0136 18.7063 39.0322 19.7248 39.0322 20.9898V21.1137C39.0322 22.3787 38.0136 23.3972 36.7485 23.3972H10.0627C9.19105 24.9654 8.48835 26.6216 7.96638 28.3381H32.2472C33.5467 28.3381 34.5929 29.3842 34.5929 30.6835C34.5929 31.9829 33.5467 33.029 32.2472 33.029H7.03812C6.94811 33.8495 6.89824 34.674 6.88867 35.4994C6.90106 36.325 6.95378 37.1494 7.04663 37.9699H37.2906C38.5557 37.9699 39.5743 38.9881 39.5743 40.2531V40.3773C39.5743 41.6423 38.5557 42.6607 37.2906 42.6607H7.97686C8.47103 44.3737 9.1445 46.0297 9.98611 47.6014H31.4171C32.7166 47.6014 33.7628 48.6475 33.7628 49.9468C33.7628 51.2462 32.7166 52.2923 31.4171 52.2923H13.2502C15.6292 54.9829 18.5527 57.1374 21.8272 58.6132C25.1016 60.0889 28.6523 60.8522 32.244 60.8525C35.5737 60.8525 38.8708 60.1968 41.947 58.9227C45.0233 57.6485 47.8184 55.781 50.1729 53.4268C52.5273 51.0725 54.395 48.2776 55.6692 45.2016C56.9434 42.1257 57.5993 38.8288 57.5992 35.4994C57.5992 32.17 56.9434 28.8732 55.6692 25.7972C54.395 22.7212 52.5273 19.9263 50.1729 17.5721C47.8184 15.2178 45.0233 13.3503 41.947 12.0762C38.8708 10.8021 35.5737 10.1463 32.244 10.1463Z" fill="url(#paint0_linear_2139_113)"/>
</g>
<defs>
<linearGradient id="paint0_linear_2139_113" x1="7.07338" y1="60.1962" x2="57.1188" y2="10.3838" gradientUnits="userSpaceOnUse">
<stop stop-color="#C240E7"/>
<stop offset="1" stop-color="#ED307C"/>
</linearGradient>
<clipPath id="clip0_2139_113">
<rect width="203" height="71" fill="white"/>
</clipPath>
</defs>
</svg>
