<svg width="117" height="99" viewBox="0 0 117 99" fill="none" xmlns="http://www.w3.org/2000/svg">
<path d="M77.91 60.7697C72.01 60.7697 66.69 57.1397 66.69 49.2197C66.69 41.2997 72 37.6697 77.91 37.6697C81.91 37.6697 85.58 39.3197 87.58 42.8097C85.9679 32.7319 80.6175 23.6316 72.5953 17.3225C64.5731 11.0133 54.4682 7.95869 44.2943 8.76729C34.1205 9.57589 24.6249 14.1884 17.7 21.6855C10.7751 29.1826 6.92944 39.0138 6.92944 49.2197C6.92944 59.4257 10.7751 69.2568 17.7 76.754C24.6249 84.2511 34.1205 88.8636 44.2943 89.6722C54.4682 90.4808 64.5731 87.4261 72.5953 81.117C80.6175 74.8078 85.9679 65.7075 87.58 55.6297C85.58 59.1197 81.88 60.7697 77.91 60.7697ZM35.19 60.1897H29.41V46.8697C29.41 45.2597 29.33 42.5397 25.66 42.5397C23.1 42.5397 21.12 44.2697 21.12 47.6097V60.1897H15.35V38.2497H20.87V41.4597H21C21.6241 40.2643 22.5771 39.2724 23.7465 38.6009C24.9159 37.9293 26.253 37.6062 27.6 37.6697C31.89 37.6697 35.23 40.1897 35.23 45.0097L35.19 60.1897ZM43.69 60.1897H37.92V38.2497H43.69V60.1897ZM56 55.9997C57.0198 55.9801 57.9936 55.5717 58.7223 54.8579C59.4509 54.1441 59.8794 53.1789 59.92 52.1597H65.78C65.57 54.4297 63.78 60.7397 55.78 60.7397C47.54 60.7397 45.64 54.4297 45.64 49.8097C45.64 42.7097 48.73 37.6397 56.16 37.6397C59.62 37.6397 65.31 39.2097 65.85 46.0497H59.94C59.69 44.6097 58.79 42.3397 56.11 42.5097C52.48 42.5097 51.53 46.1397 51.53 48.8597C51.53 51.2797 51.61 55.9997 56 55.9997Z" fill="#21A8E0"/>
<path d="M77.91 55.9C80.8261 55.9 83.19 52.9093 83.19 49.22C83.19 45.5308 80.8261 42.54 77.91 42.54C74.9939 42.54 72.63 45.5308 72.63 49.22C72.63 52.9093 74.9939 55.9 77.91 55.9Z" fill="#21A8E0"/>
<path d="M101 48.87V42.09C101 39 97.78 38.46 96 38.46C93.44 38.46 90.77 39 90.4 42.84H93.6C93.6005 42.5889 93.6548 42.3408 93.7591 42.1124C93.8634 41.884 94.0154 41.6805 94.2048 41.5157C94.3943 41.3509 94.6168 41.2285 94.8574 41.1568C95.0981 41.0851 95.3513 41.0657 95.6 41.1C96.45 41.1 97.77 41.17 97.77 42.56C97.77 43.26 97.13 43.48 96.61 43.56L93.61 44C92.9719 44.0532 92.3549 44.2544 91.8081 44.5877C91.2613 44.921 90.7997 45.3771 90.46 45.92C90.9801 46.3012 91.4031 46.7995 91.695 47.3745C91.9868 47.9495 92.1393 48.5851 92.14 49.23C92.1399 49.8984 91.9787 50.557 91.67 51.15C92.316 51.4939 93.0383 51.6693 93.77 51.66C94.5305 51.6754 95.2847 51.5199 95.977 51.2049C96.6693 50.8899 97.2821 50.4234 97.77 49.84C97.8033 50.3487 97.9076 50.8502 98.08 51.33H101.63V50.83C101.34 50.68 101 50.35 101 48.87ZM97.78 46.87C97.7475 47.23 97.6438 47.58 97.475 47.8997C97.3061 48.2193 97.0754 48.5023 96.7963 48.732C96.5172 48.9618 96.1953 49.1339 95.8492 49.2383C95.503 49.3426 95.1396 49.3772 94.78 49.34C94.5774 49.3529 94.3744 49.3229 94.1843 49.2519C93.9941 49.1808 93.8211 49.0704 93.6767 48.9278C93.5322 48.7852 93.4195 48.6137 93.346 48.4245C93.2724 48.2353 93.2397 48.0327 93.25 47.83C93.25 46.47 94.25 46.16 95.49 45.95C96.2815 45.9125 97.0513 45.6788 97.73 45.27L97.78 46.87Z" fill="#21A8E0"/>
<path d="M102.79 38.7897H106V40.9997C106.68 39.7197 107.43 38.4997 109.43 38.4997C109.643 38.4845 109.857 38.4845 110.07 38.4997V41.8397C109.759 41.7976 109.444 41.7809 109.13 41.7897C106.56 41.7897 106.13 43.3997 106.13 44.7897V51.3197H102.83L102.79 38.7897Z" fill="#21A8E0"/>
<path d="M88.1 46.1201C87.484 46.1182 86.8814 46.2991 86.3684 46.6401C85.8554 46.9811 85.4553 47.4667 85.2186 48.0354C84.982 48.604 84.9196 49.2302 85.0393 49.8344C85.1589 50.4386 85.4553 50.9937 85.8909 51.4292C86.3264 51.8648 86.8815 52.1612 87.4857 52.2808C88.0899 52.4005 88.7161 52.3381 89.2847 52.1015C89.8534 51.8648 90.339 51.4647 90.68 50.9517C91.021 50.4387 91.2019 49.8361 91.2 49.2201C91.2 48.398 90.8734 47.6095 90.292 47.0281C89.7106 46.4467 88.9221 46.1201 88.1 46.1201Z" fill="#E7AB23"/>
</svg>
